<svg version="1" xmlns="http://www.w3.org/2000/svg" width="1000" height="1000" viewBox="0 0 750.000000 750.000000"><path d="M509.7 26.6c-.1.1-5.6.3-12.2.4-6.6.1-15.1.7-19 1.2-3.8.5-11 1-16 1.3-4.9.2-10.6.6-12.5.9-1.9.3-8.9 1-15.5 1.7s-12.4 1.5-13 1.9c-.5.4-4.4 1-8.7 1.4-4.2.4-10.7 1.3-14.5 2.2-20.8 4.5-31.2 6.7-34.3 7.1-1.9.3-3.9.9-4.5 1.3-.5.4-3 1-5.5 1.4-5 .7-9.8 2.1-14.8 4.2-1.8.8-5.7 1.7-8.7 2-3 .4-6 1.3-6.6 2-.6.8-2.2 1.4-3.6 1.4-1.3 0-3.4.5-4.6 1.2-1.2.6-3.5 1.5-5.2 1.9-3.3.9-13.8 4.5-17 5.8-5.8 2.5-7.7 3.1-9.3 3.1-.9 0-3.9 1.1-6.7 2.4-8.9 4.3-17.2 7.6-18.8 7.6-.9 0-3.3 1.1-5.3 2.5-2.1 1.4-4.9 2.8-6.3 3.2-1.4.3-4.6 1.7-7 3-2.4 1.2-4.9 2.3-5.5 2.3-.6 0-3.8 1.3-6.9 3-3.2 1.6-6.4 3-7.1 3-.7 0-3 1.1-5 2.5s-4.9 2.8-6.4 3.1c-1.5.4-4 1.7-5.7 2.9-1.6 1.2-4.8 2.8-7 3.5-2.2.8-4.7 2.2-5.6 3.1-1.5 1.6-5.4 3.9-12.7 7.4-1.8.8-5.4 2.9-8.1 4.5-2.6 1.7-5.5 3-6.4 3-.9 0-2.2.8-2.9 1.8-1.6 2.2-10.7 8.2-12.5 8.2-.7 0-1.8.9-2.5 2s-1.6 2-2.1 2c-.7 0-8.1 5-14.3 9.7-1.7 1.2-3.4 2.3-3.8 2.3-.3 0-4.9 3.3-10.2 7.2-5.3 4-12.4 9.3-15.9 11.8-3.4 2.5-7 5.3-7.9 6.2-1 1-2.3 1.8-3.1 1.8-.7 0-2.5 1.6-3.9 3.5-1.5 1.9-5.6 5.5-9.1 8.1-3.6 2.5-6.5 4.9-6.5 5.4 0 .4-.9 1-2.1 1.3-1.1.3-2.3 1.5-2.6 2.6-.3 1.2-.8 2.1-1.2 2.1-.4 0-5.2 4.3-10.7 9.5-5.4 5.2-10.2 9.5-10.6 9.5-1.2 0-14.8 13.6-14.8 14.7 0 .6-2.7 3.6-6 6.6-3.3 2.9-6 5.9-6 6.5 0 .6-2.2 3-5 5.4-2.7 2.4-5 4.7-5 5.1 0 .4-.9 2.1-2.1 3.6-1.8 2.5-2.1 4.2-2 14.2.1 13.9.5 21.8 2 37.4 3.1 32.7 3.3 33.9 6 49.7.5 2.9 1.4 8.4 2 12.3 1.6 10.5 5.6 29.4 6.4 30.1.4.4.7 2.6.7 4.9 0 2.2.9 5.8 2 8s2 5.4 2 7.2c0 1.8.4 4.1.9 5.1 2.1 4 4 10 4.6 14.2.4 2.5 1.3 5.4 2 6.5.7 1.1 1.6 4.1 2 6.5.4 2.5 1.6 5.9 2.6 7.6 1 1.7 1.9 4.1 1.9 5.2 0 1.2.9 3.7 1.9 5.6 1.1 1.9 3.2 7.4 4.6 12.3 1.4 4.8 3 9.6 3.5 10.5 1.5 2.6 1.3 2.8-2 2.8-1.6 0-3 .4-3 1 0 .5-.6 1-1.4 1-2 0-8.6 4-8.6 5.1 0 .5.5.9 1 .9.6 0 1 .6 1 1.4 0 .8.7 1.6 1.5 2 .8.3 1.5 1 1.5 1.6 0 .6.6 1.8 1.3 2.5 3.1 3.6 3.7 4.5 3.7 6.4 0 1 .7 2.1 1.5 2.5.8.3 1.5 1.4 1.5 2.5 0 1 .7 2.1 1.5 2.5.8.3 1.5 1.2 1.5 2 0 .7.7 1.6 1.5 2 .8.3 1.5 1 1.5 1.6 0 .6.6 1.8 1.3 2.5 3.1 3.5 3.7 4.5 3.7 6 0 .8.7 1.5 1.5 1.5s1.5.7 1.5 1.5.7 1.5 1.5 1.5c.9 0 1.5.9 1.5 2.4 0 1.7 1 3.1 3 4.3 1.7.9 3.3 2.6 3.6 3.7.4 1 1.9 3.2 3.5 4.7 1.6 1.6 2.9 3.3 2.9 3.9 0 .5.7 1 1.5 1s1.7 1.1 2.1 2.5c.3 1.4 1 2.5 1.5 2.5 1.2 0 4.4 3.3 5.2 5.3.3.9 1.3 1.7 2.1 1.7s1.8.9 2.1 2c.3 1.1 1.1 2 1.6 2s.9.7.9 1.5.4 1.5.8 1.5c.5 0 .9.6.9 1.2 0 2 3.4 8.8 4.5 8.8.5 0 1.9 2.2 3.1 4.8 1.3 2.7 3.7 6.7 5.5 8.9 1.8 2.3 3.2 4.5 3.2 4.9 0 .5 1.6 2.4 3.5 4.3s3.5 3.9 3.5 4.6c0 .6 1.1 2.2 2.5 3.5 1.4 1.3 2.5 2.9 2.5 3.5 0 .6 1.1 2.2 2.5 3.5 1.4 1.3 2.5 2.9 2.5 3.6 0 .7 1.3 2.9 3 4.7 1.6 1.9 3 3.9 3 4.3 0 .5 2.1 2.9 4.5 5.3 2.5 2.5 4.8 5.4 5.1 6.5.4 1.1 3.1 4.4 6 7.3 3 2.9 5.4 5.6 5.4 6 0 .4 1.6 2.4 3.6 4.3s5.9 6.5 8.7 10.2c2.7 3.8 5.3 6.8 5.8 6.8.4 0 3 2.3 5.6 5.2 8.8 9.5 16.8 16.7 20.3 18.5 3.1 1.5 7.1 1.7 36.5 1.7 21.6-.1 39.1-.6 50.5-1.7 9.6-.8 18.7-1.3 20.3-1 1.5.3 3.3.1 4-.5 1.4-1.1 8.2-2.4 14.7-2.7 2.5-.1 6.5-.7 9-1.3 6.8-1.7 28.7-5.4 35-5.9 3-.3 6-.9 6.5-1.4.6-.4 3.1-1.1 5.5-1.5 2.5-.4 5-1 5.5-1.4.6-.5 3.9-1.3 7.5-2 3.6-.6 7.2-1.5 8-1.9.9-.5 4-1.2 7-1.6 3-.4 6.2-1.3 7-2 .8-.7 3.1-1.6 5-1.9 8.1-1.5 9.6-2 12.8-3.7 1.8-1.1 4.2-1.9 5.2-1.9 1.1 0 2.8-.4 3.8-.9.9-.5 3.7-1.5 6.2-2.1 2.5-.7 5.9-1.9 7.7-2.6 1.7-.8 3.7-1.4 4.5-1.4 2 0 8.4-2.4 10-3.7.7-.7 3.6-1.7 6.3-2.4 6.3-1.5 6.4-1.5 10-3.8 1.7-1.1 3.8-2 4.7-2 1-.1 3.4-1.1 5.5-2.2 2.1-1.2 5.4-2.7 7.3-3.4 4.4-1.6 12.6-5.1 16.5-7.2 10.3-5.5 22.8-11.3 24.1-11.3.6 0 1.7-.6 2.3-1.4 1.7-2 8.8-5.6 11-5.6 1 0 2.6-1 3.7-2.1 1-1.2 3.3-2.8 4.9-3.6 1.7-.7 5-2.7 7.5-4.3 2.5-1.6 5.6-3.5 7-4.1 1.4-.6 3.3-1.5 4.2-2 1-.5 2.4-.9 3.2-.9.8 0 2.1-.8 2.8-1.9.7-1 2.7-2.6 4.3-3.5 7-4 10.6-6.4 16.8-10.9 3.5-2.6 6.9-4.7 7.4-4.7s2-1.1 3.3-2.5c1.3-1.4 2.8-2.5 3.4-2.5.6 0 3.6-2.2 6.7-4.8 6.6-5.6 18.1-14.1 21.9-16.2 1.5-.8 4.8-3.5 7.4-6 2.6-2.5 5.6-4.7 6.8-5 1.2-.3 2.6-1.4 3.2-2.5.6-1.1 1.7-2.4 2.5-2.9.7-.5 3-2.3 5-4.1 2-1.7 4.4-3.5 5.4-3.8.9-.4 2-1.4 2.4-2.4.4-.9 2.4-3.3 4.6-5.2 2.2-2 8.5-8 14.1-13.4 5.5-5.5 11.1-10.3 12.4-10.8 1.2-.5 2.6-1.9 3.1-3.1.5-1.3 3.1-4.3 5.7-6.8 2.7-2.5 7.2-7.3 9.9-10.7 2.8-3.4 5.8-6.3 6.7-6.6 1-.3 2.1-1.3 2.5-2.4.3-1 1.4-2.9 2.3-4.3 1.5-2.1 1.7-4.7 1.5-17.5-.6-28.8-4.8-69.3-9.5-91-.6-2.8-1.5-7.7-2-11-1.5-10.3-2.9-16.7-5.1-24.5-1.1-4.1-2.5-9.2-3-11.4-.5-2.1-1.7-5.2-2.5-6.9-1.4-2.6-1.5-3.8-.4-8.6.8-3.1 1.9-6.8 2.7-8.3.7-1.5 1.3-4.2 1.3-6 0-1.8.7-4.6 1.5-6.2.8-1.5 1.5-5.6 1.6-9 .1-3.3.6-6.7 1.1-7.4.7-.8.7-1.6-.1-2.5-.6-.7-1.1-2.7-1.1-4.3 0-5.1-1.2-12.4-2-12.4-.5 0-1.1-1.8-1.5-4-.4-2.3-1.2-4-2-4-.7 0-1.6-1.3-2-2.9-.3-1.6-1.3-3.2-2.1-3.5-.8-.3-1.4-1.2-1.4-2.1 0-.8-.4-1.5-1-1.5-.5 0-1-.9-1-2s-.7-2-1.5-2-1.5-.3-1.5-.8c0-1.5-8.7-10.2-10.3-10.2-.9 0-1.7-.4-1.7-.8 0-1.6-3.7-5.2-5.3-5.2-.9 0-1.8-.9-2.2-1.9-.3-1.1-1.9-2.4-3.5-3-1.7-.5-3-1.5-3-2 0-.6-1.1-1.1-2.5-1.1s-2.8-.7-3.1-1.5c-.4-.8-1.2-1.5-1.9-1.5s-2.2-2.8-3.4-6.3c-2.3-6.6-3.4-8.8-8.6-18.2-1.9-3.3-3.9-7.1-4.4-8.5-.6-1.4-1.5-3.2-2.1-4-.5-.8-1.7-2.9-2.6-4.5-1-1.7-3.9-6.3-6.6-10.3-2.6-4.1-4.8-8.2-4.8-9.3 0-1-.9-2.4-2-3.1-1.1-.7-2-1.6-2-2 0-.4-2.5-4.1-5.5-8.3-3-4.3-5.5-8.5-5.5-9.4 0-.9-1.8-3.7-4-6.1-2.2-2.4-4-4.9-4-5.5 0-.6-1.1-2.1-2.5-3.3-1.4-1.2-2.5-2.8-2.5-3.5 0-.7-1.1-2.3-2.5-3.5-1.4-1.2-2.5-2.8-2.5-3.5 0-.7-2-3-4.5-5-2.5-2.1-4.5-4.3-4.5-5 0-.6-.9-2-1.9-3.2-4.9-5-10.1-11.3-10.1-12 0-.5-1.5-2.3-3.2-4-3.6-3.4-9.8-10.6-9.8-11.2 0-.3-4.7-5.1-10.5-10.7-5.8-5.7-10.5-10.7-10.5-11.3 0-.5-2.3-2.8-5.1-5.1-4-3.2-6.1-4.2-10.2-4.6-5-.5-38.6-1.4-39-1z"/></svg>